# xmcd
#
# Track frame offsets:
# 150
# 15079
# 30300
# 44685
# 60951
# 73501
# 90699
# 103397
# 119644
# 131299
# 141874
# 158314
# 175140
# 189120
# 204585
# 222272
# 232991
# 247193
# 259031
# 275095
#
# Disc length: 3841 seconds
#
#
# Revision: 1
# Processed by: cddbd v1.5.1PL0 Copyright (c) Steve Scherf et al.
# Submitted via: FreeRIP 2.90 
#
DISCID=130eff14
DTITLE=Varios Artistas - Sertanejo Bom de Dança
DYEAR=2001
DGENRE=Country
TTITLE0=Gian e Giovani  - Sete Dias
TTITLE1=Zezé e Luciano - Do jeito que a moçada gosta
TTITLE2=Daniel - Pode passar o rodo
TTITLE3=Rionegro e Solimões - Esperando na Janela
TTITLE4=Chitaozinho e Xororo - Rebola
TTITLE5=Guilherme e Santiago - O io, io
TTITLE6=Dilmar e Didy - Não existe mulher feia
TTITLE7=Zezé e Luciano - Vou levar você
TTITLE8=Daniel - Carro e mulher
TTITLE9=Gino e Geno - Churrasco de Paixão
TTITLE10=Duani e Dinei - A gente se enrosca
TTITLE11=Rionegro e Solimões - Saudade aperta
TTITLE12=Guilherme e Santiago - Peão não chora
TTITLE13=Fabiano e Julio Cesar - Nois nao vive sem dinheiro
TTITLE14=Gino e Geno - Lorota
TTITLE15=Bruno e Marrone - Sem vergonha
TTITLE16=Daniel - Show de bola
TTITLE17=Frank Aguiar - Homenagem às Sogras
TTITLE18=Gino e Geno - Quando ela quer
TTITLE19=Dalvan - Pernilongo da vila
EXTD=ID3G:   2 YEAR: 2001
EXTT0=
EXTT1=
EXTT2=
EXTT3=
EXTT4=
EXTT5=
EXTT6=
EXTT7=
EXTT8=
EXTT9=
EXTT10=
EXTT11=
EXTT12=
EXTT13=
EXTT14=
EXTT15=
EXTT16=
EXTT17=
EXTT18=
EXTT19=
PLAYORDER=
